<svg width="24" height="24" viewBox="0 0 24 24" fill="none" xmlns="http://www.w3.org/2000/svg">
<rect width="24" height="24" fill="white"/>
<path d="M9.784 12.06L9.724 11.472L11.104 11.196L10.624 11.664C10.648 11.544 10.672 11.4 10.696 11.232C10.728 11.064 10.752 10.9 10.768 10.74C10.784 10.58 10.792 10.46 10.792 10.38V5.16C10.792 5.072 10.78 4.94 10.756 4.764C10.74 4.588 10.716 4.412 10.684 4.236C10.66 4.06 10.64 3.936 10.624 3.864L11.104 4.32L9.76 4.104L9.82 3.48C9.972 3.488 10.14 3.496 10.324 3.504C10.508 3.512 10.68 3.52 10.84 3.528C11 3.536 11.116 3.54 11.188 3.54C11.396 3.54 11.636 3.536 11.908 3.528C12.18 3.512 12.48 3.496 12.808 3.48L12.856 4.164L11.512 4.284L11.944 3.864C11.936 4 11.916 4.232 11.884 4.56C11.852 4.888 11.836 5.208 11.836 5.52V10.02C11.836 10.228 11.84 10.44 11.848 10.656C11.864 10.872 11.884 11.068 11.908 11.244C11.932 11.42 11.952 11.56 11.968 11.664L11.512 11.244L13.012 11.364L12.928 12H11.392C11.192 12 10.956 12.004 10.684 12.012C10.412 12.028 10.112 12.044 9.784 12.06ZM4.732 12.06L4.672 11.472L6.04 11.196L5.572 11.664C5.588 11.592 5.608 11.472 5.632 11.304C5.656 11.128 5.68 10.952 5.704 10.776C5.728 10.592 5.74 10.46 5.74 10.38V5.16C5.74 5.072 5.728 4.944 5.704 4.776C5.688 4.6 5.664 4.424 5.632 4.248C5.608 4.072 5.588 3.944 5.572 3.864L6.04 4.32L4.696 4.104L4.756 3.48C4.908 3.488 5.076 3.496 5.26 3.504C5.444 3.512 5.616 3.52 5.776 3.528C5.944 3.536 6.064 3.54 6.136 3.54C6.344 3.54 6.584 3.536 6.856 3.528C7.128 3.512 7.428 3.496 7.756 3.48L7.804 4.164L6.448 4.284L6.904 3.864C6.896 3.928 6.88 4.052 6.856 4.236C6.832 4.42 6.812 4.628 6.796 4.86C6.78 5.092 6.772 5.312 6.772 5.52V10.02C6.772 10.228 6.78 10.44 6.796 10.656C6.812 10.864 6.832 11.06 6.856 11.244C6.88 11.42 6.9 11.56 6.916 11.664L6.448 11.244L7.96 11.364L7.876 12H6.34C6.14 12 5.904 12.004 5.632 12.012C5.36 12.028 5.06 12.044 4.732 12.06ZM6.112 8.052V7.476L11.452 7.416V8.052H6.112ZM14.28 13.236L14.244 12.792L15.672 12.636L15.252 13.068C15.284 12.892 15.312 12.704 15.336 12.504C15.36 12.312 15.372 12.18 15.372 12.108V9.18L15.708 9.408L14.388 9.9L14.148 9.516L15.72 8.316L16.272 8.4C16.264 8.592 16.256 8.804 16.248 9.036C16.24 9.268 16.232 9.484 16.224 9.684C16.216 9.876 16.212 10.016 16.212 10.104V11.88C16.212 12.032 16.22 12.208 16.236 12.408C16.26 12.616 16.288 12.836 16.32 13.068L15.924 12.66L17.1 12.744L17.052 13.2H15.624C15.576 13.2 15.46 13.2 15.276 13.2C15.1 13.208 14.916 13.212 14.724 13.212C14.532 13.22 14.384 13.228 14.28 13.236Z" fill="black" fill-opacity="0.76"/>
<line x1="5" y1="15.8" x2="22" y2="15.8" stroke="black" stroke-opacity="0.58" stroke-width="0.4"/>
<line x1="5" y1="17.8" x2="16" y2="17.8" stroke="black" stroke-opacity="0.58" stroke-width="0.4"/>
<line x1="5" y1="19.8" x2="12" y2="19.8" stroke="black" stroke-opacity="0.58" stroke-width="0.4"/>
</svg>
