<svg width="24" height="24" viewBox="0 0 24 24" fill="none" xmlns="http://www.w3.org/2000/svg">
<rect width="24" height="24" fill="white"/>
<line x1="13" y1="9.8" x2="20" y2="9.8" stroke="black" stroke-opacity="0.58" stroke-width="0.4"/>
<line x1="13" y1="11.8" x2="18" y2="11.8" stroke="black" stroke-opacity="0.58" stroke-width="0.4"/>
<line x1="13" y1="13.8" x2="19" y2="13.8" stroke="black" stroke-opacity="0.58" stroke-width="0.4"/>
<path d="M5.10928 16.06L5.04928 15.484L7.11328 15.22L6.65728 15.688C6.68128 15.544 6.70528 15.384 6.72928 15.208C6.75328 15.024 6.77328 14.856 6.78928 14.704C6.80528 14.552 6.81328 14.448 6.81328 14.392V9.268L7.17328 9.46L5.20528 10.396L4.89328 9.916L7.32928 7.936L7.82128 8.08C7.81328 8.392 7.80128 8.74 7.78528 9.124C7.76928 9.5 7.75728 9.852 7.74928 10.18C7.74128 10.5 7.73728 10.736 7.73728 10.888V14.032C7.73728 14.216 7.74128 14.4 7.74928 14.584C7.76528 14.768 7.78128 14.952 7.79728 15.136C7.82128 15.32 7.84528 15.504 7.86928 15.688L7.42528 15.256L9.16528 15.376L9.08128 16H7.19728C7.15728 16 7.05328 16 6.88528 16C6.71728 16.008 6.52128 16.016 6.29728 16.024C6.07328 16.032 5.85328 16.036 5.63728 16.036C5.42128 16.044 5.24528 16.052 5.10928 16.06ZM11.8826 16.12C11.6426 16.12 11.4586 16.044 11.3306 15.892C11.2026 15.74 11.1386 15.544 11.1386 15.304C11.1386 15.064 11.2026 14.868 11.3306 14.716C11.4586 14.556 11.6426 14.476 11.8826 14.476C12.1226 14.476 12.3066 14.552 12.4346 14.704C12.5706 14.848 12.6386 15.048 12.6386 15.304C12.6386 15.544 12.5746 15.74 12.4466 15.892C12.3186 16.044 12.1306 16.12 11.8826 16.12Z" fill="black"/>
</svg>
